<svg xmlns="http://www.w3.org/2000/svg" width="226" height="24" viewBox="0 0 226 24">
    <g fill="none" fill-rule="evenodd">
        <path fill="#CE2235" d="M11.665 3v14.774h4.757c3.306 0 4.001-2.167 4.001-3.985 0-1.552-.264-3.162-1.981-3.693 1.134-.467 2.023-1.6 2.023-3.19 0-3.5-2.404-3.906-4.027-3.906h-4.773zm4.363 2.549c.76 0 1.062.707 1.062 1.678 0 1.237-.385 1.676-.926 1.676H15.11V5.549h.918zm-.085 5.904c1.073 0 1.285.566 1.285 1.896 0 1.875-.835 1.875-1.356 1.875h-.762v-3.771h.833zM21.39 3v14.774h4.755c3.307 0 4.001-2.167 4.001-3.985 0-1.553-.265-3.162-1.979-3.694 1.132-.466 2.023-1.599 2.023-3.19C30.19 3.406 27.783 3 26.16 3H21.39zm4.36 2.549c.76 0 1.064.706 1.064 1.677 0 1.238-.385 1.676-.926 1.676h-1.055V5.55h.917zm-.085 5.904c1.076 0 1.286.566 1.286 1.896 0 1.875-.834 1.875-1.354 1.875h-.764v-3.771h.832zM36.37 3s-1.29 5.013-1.583 5.92C34.51 8.01 33.315 3 33.315 3h-3.209s2.905 9.585 2.921 9.633v5.14h3.447v-5.138C36.49 12.583 39.393 3 39.393 3H36.37M46.122 3s-1.31 5.09-1.608 6.011C44.232 8.086 43.019 3 43.019 3h-3.257s2.95 9.732 2.966 9.781V18h3.499v-5.217C46.246 12.73 49.19 3 49.19 3h-3.068M8.097 17.774h2.943L8.057 3H4.054L1.07 17.773h2.943l.636-3.146h2.813l.635 3.147zm-2.933-5.7l.89-4.412.892 4.413H5.164zM51.234 4.224c.142 0 .224-.026.224-.187 0-.153-.16-.164-.28-.164h-.217v.351h.273zm-.273.866h-.315V3.625h.547c.378 0 .6.109.6.442 0 .27-.158.367-.353.382l.375.64h-.37l-.342-.618h-.142v.619zm.224-1.776c-.539 0-.972.42-.972 1.045 0 .626.433 1.046.972 1.046.525 0 .97-.42.97-1.046 0-.625-.445-1.045-.97-1.045zm0 2.405c-.722 0-1.366-.503-1.366-1.36 0-.857.644-1.359 1.366-1.359.72 0 1.364.502 1.364 1.36 0 .856-.645 1.359-1.364 1.359z"/>
        <path fill="#222" d="M65.097 2.922h5.061V18h-3.465v-5.292c0-1.449.105-5.313.189-6.573h-.021L64.614 18h-2.52L59.847 6.135h-.021c.063 1.05.189 4.515.189 6.552V18H56.55V2.922h5.061l1.176 6.111c.252 1.239.378 3.339.546 4.767h.042c.168-1.365.336-3.696.546-4.767l1.176-6.111zm6.993 11.067v-3.297c0-3.234 1.743-4.305 4.158-4.305 2.373 0 4.116 1.071 4.116 4.326v3.255c0 3.255-1.722 4.347-4.116 4.347-2.394 0-4.158-1.092-4.158-4.326zm3.192-3.927v4.62c0 .798.378 1.197.966 1.197.567 0 .924-.399.924-1.134v-4.683c0-.819-.336-1.176-.924-1.176-.651 0-.966.441-.966 1.176zm10.248.189v4.242c0 .903.357 1.281.945 1.281s.945-.315.945-1.281v-4.2c0-.882-.336-1.302-.903-1.302-.609 0-.987.399-.987 1.26zm-.147 6.489V18h-3.045V2.922h3.192v4.767c.777-.861 1.554-1.302 2.541-1.302 1.491 0 2.688 1.26 2.688 3.507v5.271c0 1.974-1.092 3.15-2.604 3.15-.966 0-1.974-.147-2.772-1.575zm10.71-10.038V18h-3.192V6.702h3.192zm-3.192-1.239V2.754h3.192v2.709h-3.192zm8.778-2.541V18h-3.192V2.922h3.192zm4.956 9.828v1.743c0 .924.252 1.47 1.029 1.47.777 0 1.029-.567 1.029-1.47v-.672h3.024v.819c0 2.709-2.121 3.675-4.053 3.675s-4.053-1.008-4.053-3.696V10.02c0-2.688 2.121-3.633 4.053-3.633s4.053.966 4.053 3.675v2.688h-5.082zm0-2.058h2.058v-.399c0-1.176-.231-1.638-1.029-1.638-.735 0-1.029.504-1.029 1.638v.399zM120.81 18l-2.541-15.078h3.507l.735 7.854c.105 1.113.126 3.465.189 4.536h.042c.147-1.911.252-3.906.336-4.473l1.239-7.917h3.318l1.113 7.854c.147 1.05.21 3.045.294 4.452h.042c.063-1.239.105-3.36.231-4.452l.861-7.854h3.339L130.974 18h-3.948l-.819-7.434c-.084-.777-.21-3.423-.273-4.998h-.042c-.105 1.953-.252 4.305-.336 4.998L124.632 18h-3.822zm16.8-5.25v1.743c0 .924.252 1.47 1.029 1.47.777 0 1.029-.567 1.029-1.47v-.672h3.024v.819c0 2.709-2.121 3.675-4.053 3.675s-4.053-1.008-4.053-3.696V10.02c0-2.688 2.121-3.633 4.053-3.633s4.053.966 4.053 3.675v2.688h-5.082zm0-2.058h2.058v-.399c0-1.176-.231-1.638-1.029-1.638-.735 0-1.029.504-1.029 1.638v.399zm10.29-.441v4.242c0 .903.357 1.281.945 1.281s.945-.315.945-1.281v-4.2c0-.882-.336-1.302-.903-1.302-.609 0-.987.399-.987 1.26zm-.147 6.489V18h-3.045V2.922h3.192v4.767c.777-.861 1.554-1.302 2.541-1.302 1.491 0 2.688 1.26 2.688 3.507v5.271c0 1.974-1.092 3.15-2.604 3.15-.966 0-1.974-.147-2.772-1.575zm18.732-4.704h3.633v1.407c0 3.423-1.554 4.914-4.914 4.914-3.339 0-4.914-1.47-4.914-4.935V6.849c0-2.373 1.47-4.263 4.914-4.263 3.402 0 4.914 1.932 4.914 4.284v1.365h-3.633V6.534c0-.798-.756-1.176-1.323-1.176-.609 0-1.239.336-1.239 1.113v7.518c0 1.134.483 1.617 1.239 1.617.777 0 1.323-.441 1.323-1.575v-1.995zm10.416 2.121v-1.764c-.126.147-.357.252-.546.378l-.861.567c-.483.315-.609.798-.609 1.428 0 .777.231 1.092.882 1.092.756 0 1.134-.525 1.134-1.701zM180.345 18h-3.066l-.189-1.428c-.462.924-1.05 1.743-2.625 1.743-1.722 0-2.751-.819-2.751-3.045 0-1.701.672-2.667 2.037-3.36l2.184-1.113c.714-.357.966-.588.966-1.281 0-.462-.252-.903-.987-.903-.714 0-1.029.504-1.029 1.365v.399h-3.024c0-2.352 1.176-3.99 4.074-3.99 2.898 0 4.158 1.155 4.158 3.255v6.447c0 1.029.042 1.428.252 1.911zm5.145-7.623v4.074c0 .903.336 1.323.945 1.323.525 0 .945-.378.945-1.365v-4.053c0-.924-.273-1.365-.924-1.365-.63 0-.966.483-.966 1.386zm0 6.615v4.83h-3.192V6.702h2.877v1.344c.672-1.134 1.68-1.659 2.604-1.659 1.638 0 2.793 1.26 2.793 3.549v5.166c0 1.932-1.302 3.213-2.793 3.213-.861 0-1.575-.399-2.289-1.323zm7.455-1.533V8.928h-1.281V6.702h1.281v-3.15h3.192v3.15h1.722v2.226h-1.722v6.048c0 .651.756.714 1.722.714V18a26 26 0 0 1-2.583.126c-1.281 0-2.331-.735-2.331-2.667zm11.277-.651V6.702h3.192V18h-3.003v-1.428l-.021.042c-.42 1.26-1.449 1.701-2.541 1.701-1.533 0-2.541-.672-2.541-2.205V6.702h3.192v8.064c0 .609.315 1.008.861 1.008.504 0 .861-.294.861-.966zm8.757-2.667V18h-3.192V6.702h2.982V8.34c.798-1.617 1.554-1.953 2.52-1.953v3.507c-1.764 0-2.31.672-2.31 2.247zm6.342.609v1.743c0 .924.252 1.47 1.029 1.47.777 0 1.029-.567 1.029-1.47v-.672h3.024v.819c0 2.709-2.121 3.675-4.053 3.675s-4.053-1.008-4.053-3.696V10.02c0-2.688 2.121-3.633 4.053-3.633s4.053.966 4.053 3.675v2.688h-5.082zm0-2.058h2.058v-.399c0-1.176-.231-1.638-1.029-1.638-.735 0-1.029.504-1.029 1.638v.399z"/>
    </g>
</svg>
