<svg xmlns="http://www.w3.org/2000/svg" width="328" height="154" viewBox="0 0 328 154">
    <g fill="none" fill-rule="evenodd">
        <path fill="#EDEDED" d="M12 9h90.895a2 2 0 0 1 2 2v131a2 2 0 0 1-2 2H12a2 2 0 0 1-2-2V11a2 2 0 0 1 2-2z"/>
        <path fill="#FFF" d="M13.217 10.227h88.461a2 2 0 0 1 2 2v128.546a2 2 0 0 1-2 2H13.217a2 2 0 0 1-2-2V12.227a2 2 0 0 1 2-2z"/>
        <path fill="#EDEDED" d="M19.733 18.818h34.065v9.818H19.733v-9.818zm0 19.637h60.83v4.909h-60.83v-4.91zm0 9.818h75.429v4.909h-75.43v-4.91zm0 7.363h75.429v4.91h-75.43v-4.91zm0 7.364h75.429v4.91h-75.43V63zm0 7.364h75.429v4.909h-75.43v-4.91zm0 7.363H70.83v4.91H19.733v-4.91zm17.032 56.455c-9.407 0-17.032-7.693-17.032-17.182 0-9.49 7.625-17.182 17.032-17.182S53.798 107.511 53.798 117c0 9.49-7.626 17.182-17.033 17.182zm0-9.818c4.032 0 7.3-3.297 7.3-7.364s-3.268-7.364-7.3-7.364c-4.031 0-7.3 3.297-7.3 7.364s3.269 7.364 7.3 7.364zm31.632-24.546h26.765v4.91H68.397v-4.91zm-9.733 0h4.866v4.91h-4.866v-4.91zm9.733 7.364h26.765v4.909H68.397v-4.91zm-9.733 0h4.866v4.909h-4.866v-4.91zm9.733 7.363h26.765v4.91H68.397v-4.91zm-9.733 0h4.866v4.91h-4.866v-4.91zm9.733 7.364h26.765v4.91H68.397v-4.91zm-9.733 0h4.866v4.91h-4.866v-4.91zm9.733 7.364h26.765v4.909H68.397v-4.91zm-9.733 0h4.866v4.909h-4.866v-4.91zM80.563 18.818h14.599v4.91h-14.6v-4.91zm-9.733 7.364h24.332v2.454H70.83v-2.454z"/>
        <g>
            <path fill="#EDEDED" d="M119 9h90.895a2 2 0 0 1 2 2v131a2 2 0 0 1-2 2H119a2 2 0 0 1-2-2V11a2 2 0 0 1 2-2z"/>
            <path fill="#FFF" d="M120.217 10.227h88.461a2 2 0 0 1 2 2v128.546a2 2 0 0 1-2 2h-88.461a2 2 0 0 1-2-2V12.227a2 2 0 0 1 2-2z"/>
            <path fill="#EDEDED" d="M126.733 18.818h75.429v4.91h-75.43v-4.91zm0 7.364h75.429v4.909h-75.43v-4.91zm0 7.363h75.429v4.91h-75.43v-4.91zm0 7.364h75.429v4.91h-75.43v-4.91zm0 7.364h51.097v4.909h-51.097v-4.91zM126.733 61.773h75.429v4.909h-75.43v-4.91zm0 7.363h75.429v4.91h-75.43v-4.91zm0 7.364h75.429v4.91h-75.43V76.5zm0 7.364h75.429v4.909h-75.43v-4.91zm0 7.363h51.097v4.91h-51.097v-4.91z"/>
        </g>
        <g>
            <path fill="#EDEDED" d="M224 9h90.895a2 2 0 0 1 2 2v131a2 2 0 0 1-2 2H224a2 2 0 0 1-2-2V11a2 2 0 0 1 2-2z"/>
            <path fill="#FFF" d="M225.217 10.227h88.461a2 2 0 0 1 2 2v128.546a2 2 0 0 1-2 2h-88.461a2 2 0 0 1-2-2V12.227a2 2 0 0 1 2-2z"/>
            <path fill="#EDEDED" d="M231.733 18.818h75.429v4.91h-75.43v-4.91zm0 7.364h75.429v4.909h-75.43v-4.91zm0 7.363h75.429v4.91h-75.43v-4.91zm0 7.364h75.429v4.91h-75.43v-4.91zm0 7.364h51.097v4.909h-51.097v-4.91zM231.733 61.773h75.429v4.909h-75.43v-4.91zm0 7.363h75.429v4.91h-75.43v-4.91zm0 7.364h75.429v4.91h-75.43V76.5zm0 7.364h75.429v4.909h-75.43v-4.91zm0 7.363h51.097v4.91h-51.097v-4.91z"/>
        </g>
        <g fill="#FFDC48" stroke="#000" stroke-opacity=".12">
            <path d="M3.5 28.485c2.268-.145 3.32-1.313 3.308-3.636-.009-1.597-.011-4.189-.01-7.633l.005-4.678.003-2.644.002-1.663c0-2.357.228-2.577 2.654-2.577h17.23c2.42 0 3.633-1.009 3.79-3.154H7.308C4.708 2.5 3.5 3.665 3.5 6.154v22.33zM85.017 3c.157 2.158 1.37 3.166 3.788 3.154 1.656-.008 4.343-.01 7.915-.009 1.479 0 3.014.002 4.852.004l2.742.003 1.724.002c1.542 0 1.852.033 2.232.4.387.373.422.68.422 2.177v16.616c0 2.323 1.053 3.492 3.308 3.638V6.654C112 4.164 110.792 3 108.192 3H85.017zM111.5 124.515c-2.268.145-3.32 1.313-3.308 3.636.009 1.597.011 4.189.01 7.633l-.005 4.678-.003 2.644-.002 1.663c0 2.357-.228 2.577-2.654 2.577h-17.23c-2.42 0-3.633 1.009-3.79 3.154h23.174c2.6 0 3.808-1.165 3.808-3.654v-22.33zM29.983 151c-.157-2.158-1.37-3.166-3.788-3.154-1.656.008-4.343.01-7.915.009-1.479 0-3.014-.002-4.852-.004l-2.742-.003-1.724-.002c-2.426 0-2.654-.22-2.654-2.577v-6.858-2.128-7.63c0-2.323-1.053-3.492-3.308-3.638v22.331C3 149.836 4.208 151 6.808 151h23.175z"/>
        </g>
    </g>
</svg>
